<?xml version="1.0" encoding="UTF-8" standalone="no"?>
<!-- Created with Inkscape (http://www.inkscape.org/) -->

<svg
   xmlns:dc="http://purl.org/dc/elements/1.1/"
   xmlns:cc="http://creativecommons.org/ns#"
   xmlns:rdf="http://www.w3.org/1999/02/22-rdf-syntax-ns#"
   xmlns:svg="http://www.w3.org/2000/svg"
   xmlns="http://www.w3.org/2000/svg"
   xmlns:sodipodi="http://sodipodi.sourceforge.net/DTD/sodipodi-0.dtd"
   xmlns:inkscape="http://www.inkscape.org/namespaces/inkscape"
   width="141.1111mm"
   height="141.1111mm"
   viewBox="0 0 141.1111 141.1111"
   version="1.1"
   id="svg8"
   inkscape:version="0.92.4 (5da689c313, 2019-01-14)"
   sodipodi:docname="drawing-1.svg">
  <defs
     id="defs2" />
  <sodipodi:namedview
     id="base"
     pagecolor="#ffffff"
     bordercolor="#666666"
     borderopacity="1.0"
     inkscape:pageopacity="0.0"
     inkscape:pageshadow="2"
     inkscape:zoom="1.4"
     inkscape:cx="283.88964"
     inkscape:cy="263.73505"
     inkscape:document-units="mm"
     inkscape:current-layer="layer1"
     showgrid="false"
     fit-margin-top="0"
     fit-margin-left="0"
     fit-margin-right="0"
     fit-margin-bottom="0"
     inkscape:window-width="1920"
     inkscape:window-height="1001"
     inkscape:window-x="1911"
     inkscape:window-y="-9"
     inkscape:window-maximized="1" />
  <metadata
     id="metadata5">
    <rdf:RDF>
      <cc:Work
         rdf:about="">
        <dc:format>image/svg+xml</dc:format>
        <dc:type
           rdf:resource="http://purl.org/dc/dcmitype/StillImage" />
        <dc:title />
      </cc:Work>
    </rdf:RDF>
  </metadata>
  <g
     inkscape:label="Layer 1"
     inkscape:groupmode="layer"
     id="layer1"
     transform="translate(-139.59921,-189.40279)">
    <path
       style="fill:#ffffff;stroke-width:0.35277775"
       d="m 191.37547,310.30809 c -0.98059,-0.82512 -1.12269,-1.13822 -0.96304,-2.12197 0.16374,-1.00907 3.10819,-6.68606 9.58383,-18.47799 1.01224,-1.84326 2.67829,-4.93889 3.70232,-6.87917 1.6448,-3.11648 4.03389,-7.47233 4.93401,-8.99583 0.17195,-0.29104 1.65251,-3.06916 3.29013,-6.17361 1.63762,-3.10444 4.48276,-8.42257 6.32253,-11.81805 1.83977,-3.39549 4.18831,-7.76111 5.21899,-9.70139 1.03067,-1.94028 2.54075,-4.7184 3.35573,-6.17361 0.81498,-1.45521 2.23837,-4.07459 3.16309,-5.82083 0.92472,-1.74625 2.19415,-4.1275 2.82095,-5.29167 0.62681,-1.16417 3.87172,-7.19667 7.21093,-13.40556 3.3392,-6.20888 6.46577,-11.64607 6.94794,-12.08263 1.12664,-1.02009 2.62383,-1.02009 3.55749,0 1.31387,1.43548 1.31316,2.21486 -0.004,4.59362 -0.66929,1.20854 -1.76921,3.22922 -2.44428,4.4904 -1.14067,2.13102 -18.58698,34.341 -20.73214,38.27639 -0.52882,0.97014 -4.6557,8.59014 -9.17085,16.93333 -4.51516,8.3432 -8.64094,15.96319 -9.16843,16.93333 -0.52748,0.97014 -1.73492,3.19264 -2.68319,4.93889 -0.94828,1.74625 -2.08968,3.81 -2.53643,4.58611 -0.44677,0.77611 -0.9037,1.68893 -1.01542,2.02847 -0.11171,0.33955 -0.34335,0.61737 -0.51475,0.61737 -0.1714,0 -0.31372,0.19843 -0.31628,0.44097 -0.002,0.24253 -1.05407,2.34597 -2.33671,4.6743 -1.28264,2.32834 -2.71672,5.002 -3.18685,5.94148 -1.67347,3.34419 -3.15035,4.07382 -5.03541,2.48765 z m -19.13034,-13.55723 c -1.21421,-0.70851 -1.12997,-2.2427 0.26421,-4.8117 0.71857,-1.32408 2.22794,-4.15937 3.35416,-6.30065 4.3234,-8.22005 4.88228,-9.17868 5.72084,-9.8129 0.73329,-0.55459 0.9905,-0.5866 1.70167,-0.21177 2.0533,1.08224 1.88827,1.8166 -2.03457,9.05368 -1.87085,3.45143 -4.0324,7.46596 -4.80345,8.92117 -1.839,3.47075 -2.64053,4.07381 -4.20286,3.16217 z m 65.05496,-0.42815 c -0.19576,-0.24253 -1.15346,-2.0369 -2.12822,-3.98749 -0.97476,-1.95058 -2.02763,-3.75843 -2.33971,-4.01744 -0.82693,-0.68629 -1.56276,0.11074 -3.93226,4.2593 -1.09573,1.9184 -2.15103,3.58616 -2.34513,3.70612 -0.59155,0.36559 -0.86906,-0.49202 -1.48408,-4.58628 -0.32461,-2.16099 -0.67209,-4.20688 -0.77218,-4.54643 -0.33715,-1.14381 -1.83384,-0.71615 -3.77151,1.07766 -1.00704,0.93225 -2.46597,2.28025 -3.24208,2.99555 -0.77611,0.71529 -1.60955,1.30191 -1.85208,1.30359 -0.55249,0.004 -0.53844,-0.34676 0.20494,-5.11221 0.52566,-3.36976 0.82819,-4.28858 2.29832,-6.98035 l 1.69298,-3.09978 1.12097,0.6907 c 4.57708,2.82021 7.87695,3.69722 13.11542,3.4857 3.00465,-0.12132 4.47597,-0.36685 6.51843,-1.08778 6.46685,-2.28262 11.86765,-7.92815 13.97244,-14.60561 0.88252,-2.79979 1.05077,-8.12614 0.35098,-11.11094 -1.45721,-6.21543 -5.66779,-11.78134 -11.10358,-14.67764 -1.5725,-0.83787 -2.8591,-1.60556 -2.8591,-1.70597 0,-0.40482 2.63034,-4.93951 3.31891,-5.72179 1.2156,-1.38102 6.18368,-5.68793 6.56111,-5.68793 0.49567,0 0.43454,1.81064 -0.17863,5.29167 -0.67453,3.82929 -0.66939,4.90722 0.0247,5.17355 0.3046,0.11689 2.43263,-0.60247 4.72896,-1.59857 2.29632,-0.9961 4.34898,-1.81109 4.56145,-1.81109 0.75184,0 0.36377,1.18649 -1.57657,4.82019 -1.11359,2.08544 -1.91494,4.01299 -1.85208,4.45495 0.12828,0.90189 0.8095,0.94654 6.90177,0.45231 2.26996,-0.18415 3.61597,-0.16776 3.61597,0.044 0,0.18556 -1.50812,1.85534 -3.35139,3.71062 -1.84326,1.85529 -3.35139,3.62333 -3.35139,3.92899 0,0.80456 0.96681,1.21068 4.72102,1.98314 4.79762,0.98715 5.15676,1.09654 5.15676,1.57073 0,0.23505 -1.86531,1.38947 -4.14514,2.56536 -5.55752,2.86647 -5.61063,3.16862 -1.01305,5.76279 4.05438,2.28768 4.97362,2.95765 4.6893,3.41768 -0.11968,0.19364 -2.00782,0.63594 -4.19587,0.9829 -4.80068,0.76125 -5.56579,1.01831 -5.56579,1.87003 0,0.36091 1.36272,2.20886 3.02827,4.10657 2.00086,2.27975 2.90964,3.569 2.67861,3.80003 -0.23103,0.23103 -1.84635,0.14047 -4.76112,-0.26694 -4.50328,-0.62943 -5.53187,-0.57095 -5.53187,0.3145 0,0.27564 0.79375,2.28259 1.76389,4.45988 1.78804,4.01294 2.0515,4.93889 1.40523,4.93889 -0.19726,0 -2.09961,-0.87313 -4.22746,-1.94028 -4.06684,-2.0396 -5.07907,-2.29758 -5.42969,-1.38386 -0.11744,0.30603 -0.0303,2.42889 0.19366,4.71747 0.22396,2.28858 0.29647,4.44959 0.16114,4.80224 -0.20525,0.53487 -0.81501,0.0744 -3.6773,-2.77719 -1.8872,-1.88011 -3.70065,-3.41838 -4.0299,-3.41838 -0.84024,0 -1.13459,0.72 -2.01907,4.93889 -0.97419,4.64675 -1.05742,4.93889 -1.40719,4.93889 -0.1572,0 -0.44598,-0.19844 -0.64175,-0.44098 z m -80.67652,-9.75781 c -0.5117,-0.98953 -0.46767,-1.15181 1.22031,-4.49792 0.96314,-1.90924 1.9472,-3.70042 2.1868,-3.9804 0.2396,-0.27997 0.46756,-0.72657 0.50658,-0.99244 0.039,-0.26588 0.63915,-1.43725 1.33361,-2.60305 0.69447,-1.1658 1.26266,-2.25549 1.26266,-2.42153 0,-0.16603 0.42182,-0.63369 0.93738,-1.03923 1.01826,-0.80096 2.09184,-0.68897 2.84241,0.2965 0.72513,0.95206 0.51408,1.94648 -0.9895,4.66231 -0.79368,1.43357 -2.1632,3.95587 -3.04337,5.6051 -3.1271,5.85944 -3.2255,5.98317 -4.76494,5.99182 -0.70736,0.004 -1.10122,-0.2656 -1.49194,-1.02116 z m 31.43567,-0.48397 c -0.51525,-0.44274 -0.93682,-1.10478 -0.93682,-1.47119 0,-0.36642 1.61203,-3.65856 3.58229,-7.31587 2.89356,-5.37118 3.75188,-6.69222 4.46433,-6.87104 1.04386,-0.26199 1.82422,0.15876 2.49995,1.34792 0.46365,0.81593 0.29079,1.24202 -2.96006,7.29661 -2.18101,4.06207 -3.81151,6.68575 -4.42741,7.12432 -1.2013,0.8554 -1.09154,0.86087 -2.22228,-0.11075 z m -17.95835,-5.71066 c -0.83084,-1.14262 -0.78159,-1.70196 0.32115,-3.64703 0.51618,-0.91046 1.64857,-3.00476 2.51643,-4.654 0.86785,-1.64923 1.68976,-3.07798 1.82646,-3.175 0.1367,-0.097 0.33335,-0.51266 0.437,-0.92365 0.18399,-0.72955 0.0662,-0.75174 -4.96983,-0.93585 -6.41883,-0.23466 -8.67084,-0.93721 -12.50439,-3.90088 -1.57747,-1.21953 -3.86534,-4.20925 -4.68725,-6.12517 -0.31702,-0.73899 -0.7088,-1.60812 -0.87063,-1.93141 -0.16183,-0.32329 -0.47624,-1.63297 -0.6987,-2.91041 -0.62484,-3.58806 0.27409,-8.0908 2.21033,-11.07156 0.54198,-0.83434 0.98541,-1.63406 0.98541,-1.77715 0,-0.54707 3.43667,-3.57417 5.27412,-4.64557 2.34359,-1.36652 6.4686,-2.46723 9.2462,-2.46723 1.54479,0 2.06023,-0.12536 2.06023,-0.50107 0,-1.23205 2.76837,-5.7998 4.85684,-8.01369 3.9156,-4.15075 7.9163,-6.2457 13.34184,-6.98639 7.59301,-1.03661 15.69878,2.29639 20.38002,8.38001 l 1.56275,2.03091 2.6119,0.37628 c 3.03407,0.4371 6.48169,1.96617 8.67846,3.84901 1.40143,1.20116 1.4775,1.35338 1.02503,2.05133 -0.26881,0.41464 -1.01115,1.70639 -1.64965,2.87055 -0.63851,1.16417 -1.21638,2.18037 -1.28418,2.25822 -0.0678,0.0779 -0.88779,-0.57358 -1.82222,-1.44763 -2.29365,-2.14544 -4.92292,-3.10364 -8.51629,-3.10364 h -2.76958 l -1.39746,-2.20486 c -2.18116,-3.44133 -4.06849,-5.33365 -6.69742,-6.71511 -4.85329,-2.55033 -9.67813,-2.53236 -14.68778,0.0547 -4.26288,2.20143 -6.65471,5.7057 -8.54502,12.51928 l -0.57332,2.06654 -2.69793,-0.30265 c -6.7086,-0.75255 -9.33856,-0.11245 -12.31264,2.99678 -3.95923,4.13914 -3.95749,10.44296 0.004,14.63329 3.36333,3.55759 2.20902,3.41034 26.73345,3.41034 11.63448,0 21.1536,0.0884 21.1536,0.19637 0,0.43259 -2.88557,5.76704 -3.31021,6.11945 -0.29918,0.2483 -4.65452,0.40948 -12.71393,0.47051 l -12.25886,0.0928 -1.38066,2.46945 c -0.75936,1.35819 -1.69254,3.14413 -2.07373,3.96875 -0.3812,0.82462 -0.88394,1.4993 -1.1172,1.4993 -0.23326,0 -0.32118,0.10293 -0.19539,0.22872 0.27608,0.27609 -1.51007,3.7119 -2.13681,4.11034 -0.24407,0.15516 -0.44376,0.49536 -0.44376,0.75601 0,0.5115 -0.76012,0.90886 -1.70455,0.89107 -0.32368,-0.006 -0.86632,-0.39315 -1.20587,-0.86011 z"
       id="path826"
       inkscape:connector-curvature="0" />
  </g>
</svg>
